{"title":"The Row 2018 1080p BluRay x264 DTS [MW]","magnet":"magnet:?xt=urn:btih:be951e8845d15a1213ad9e460c80a8f949b1216a&dn=The+Row+2018+1080p+BluRay+x264+DTS+%5BMW%5D&tr=udp%3A%2F%2Ftracker.leechers-paradise.org%3A6969&tr=udp%3A%2F%2Fzer0day.ch%3A1337&tr=udp%3A%2F%2Fopen.demonii.com%3A1337&tr=udp%3A%2F%2Ftracker.coppersurfer.tk%3A6969&tr=udp%3A%2F%2Fexodus.desync.com%3A6969","uploader":"MFreaky","categoryP":"video","categoryS":"hd___movies","size":"2399451917","seeders":"3","leechers":"7","description":" <a href=\"https://pichub.site/image/Ezisj\" rel=\"nofollow\" target=\"_NEW\">https://pichub.site/image/Ezisj</a> <a href=\"\nhttps://pichub.site/image/Ez88k\" rel=\"nofollow\" target=\"_NEW\">\nhttps://pichub.site/image/Ez88k</a> <a href=\"\nhttps://pichub.site/image/EzA5Q\" rel=\"nofollow\" target=\"_NEW\">\nhttps://pichub.site/image/EzA5Q</a> <a href=\"\nhttps://pichub.site/image/Ezgyd\" rel=\"nofollow\" target=\"_NEW\">\nhttps://pichub.site/image/Ezgyd</a> <a href=\"\nhttps://pichub.site/image/EzBqv\" rel=\"nofollow\" target=\"_NEW\">\nhttps://pichub.site/image/EzBqv</a>\r\n\r\nIMDB <a href=\"\nhttps://www.imdb.com/title/tt8074486/\" rel=\"nofollow\" target=\"_NEW\">\nhttps://www.imdb.com/title/tt8074486/</a>\r\n\r\nVideo\r\nFormat                                   : AVC\r\nFormat/Info                              : Advanced Video Codec\r\nFormat profile                           : High@L4.1\r\nFormat settings                          : CABAC / 4 Ref Frames\r\nFormat settings, CABAC                   : Yes\r\nFormat settings, RefFrames               : 4 frames\r\nCodec ID                                 : V_MPEG4/ISO/AVC\r\nDuration                                 : 1 h 25 min\r\nBit rate                                 : 3 000 kb/s\r\nWidth                                    : 1 920 pixels\r\nHeight                                   : 1 036 pixels\r\nDisplay aspect ratio                     : 1.85:1\r\nFrame rate mode                          : Constant\r\nFrame rate                               : 23.976 (24000/1001) FPS\r\nColor space                              : YUV\r\nChroma subsampling                       : 4:2:0\r\nBit depth                                : 8 bits\r\nScan type                                : Progressive\r\nBits/(Pixel*Frame)                       : 0.063\r\nStream size                              : 1.77 GiB (79%)\r\nWriting library                          : x264 core 155 r2901 7d0ff22\r\n\r\nAudio\r\nFormat                                   : DTS\r\nFormat/Info                              : Digital Theater Systems\r\nCodec ID                                 : A_DTS\r\nDuration                                 : 1 h 25 min\r\nBit rate mode                            : Constant\r\nBit rate                                 : 756 kb/s\r\nChannel(s)                               : 6 channels\r\nChannel positions                        : Front: L C R, Side: L R, LFE\r\nSampling rate                            : 48.0 kHz\r\nFrame rate                               : 93.750 FPS (512 SPF)\r\nBit depth                                : 16 bits\r\nCompression mode                         : Lossy\r\nStream size                              : 463 MiB (20%)\r\nLanguage                                 : English","last_updated":"2018-09-19T12:09:53.900Z","parsed":{"xt":"urn:btih:be951e8845d15a1213ad9e460c80a8f949b1216a","dn":"The Row 2018 1080p BluRay x264 DTS [MW]","tr":["udp://exodus.desync.com:6969","udp://open.demonii.com:1337","udp://tracker.coppersurfer.tk:6969","udp://tracker.leechers-paradise.org:6969","udp://zer0day.ch:1337"],"infoHash":"be951e8845d15a1213ad9e460c80a8f949b1216a","infoHashBuffer":{"type":"Buffer","data":[190,149,30,136,69,209,90,18,19,173,158,70,12,128,168,249,73,177,33,106]},"name":"The Row 2018 1080p BluRay x264 DTS [MW]","announce":["udp://exodus.desync.com:6969","udp://open.demonii.com:1337","udp://tracker.coppersurfer.tk:6969","udp://tracker.leechers-paradise.org:6969","udp://zer0day.ch:1337"],"urlList":[]}}